{
	"asset":{
		"generator":"Khronos glTF Blender I/O v4.3.47",
		"version":"2.0"
	},
	"scene":0,
	"scenes":[
		{
			"name":"Scene",
			"nodes":[
				0,
				1,
				2,
				3,
				4
			]
		}
	],
	"nodes":[
		{
			"mesh":0,
			"name":"Cement-Cube",
			"translation":[
				0,
				0,
				1
			]
		},
		{
			"mesh":1,
			"name":"Cement-Cube.001",
			"rotation":[
				0,
				-0.8236707448959351,
				0,
				0.567068338394165
			],
			"translation":[
				-1.7073988914489746,
				0,
				1.7713054418563843
			]
		},
		{
			"mesh":2,
			"name":"Cement-Cube.002",
			"rotation":[
				0,
				-0.8236707448959351,
				0,
				0.567068338394165
			],
			"translation":[
				1.8883051872253418,
				0,
				0.8773826956748962
			]
		},
		{
			"mesh":3,
			"name":"Cube",
			"translation":[
				1,
				0,
				-1
			]
		},
		{
			"mesh":4,
			"name":"Plane",
			"scale":[
				6,
				6,
				6
			]
		}
	],
	"materials":[
		{
			"doubleSided":true,
			"name":"Cement",
			"normalTexture":{
				"index":0
			},
			"pbrMetallicRoughness":{
				"baseColorTexture":{
					"index":1
				},
				"metallicFactor":0,
				"metallicRoughnessTexture":{
					"index":2
				}
			}
		},
		{
			"doubleSided":true,
			"name":"Wood",
			"normalTexture":{
				"index":3
			},
			"pbrMetallicRoughness":{
				"baseColorTexture":{
					"index":4
				},
				"metallicFactor":0,
				"metallicRoughnessTexture":{
					"index":5
				}
			}
		},
		{
			"doubleSided":true,
			"name":"Ground",
			"normalTexture":{
				"index":6
			},
			"pbrMetallicRoughness":{
				"baseColorTexture":{
					"index":7
				},
				"metallicFactor":0,
				"metallicRoughnessTexture":{
					"index":8
				}
			}
		}
	],
	"meshes":[
		{
			"name":"Cube.001",
			"primitives":[
				{
					"attributes":{
						"POSITION":0,
						"NORMAL":1,
						"TEXCOORD_0":2,
						"TEXCOORD_1":3
					},
					"indices":4,
					"material":0
				}
			]
		},
		{
			"name":"Cube.002",
			"primitives":[
				{
					"attributes":{
						"POSITION":5,
						"NORMAL":6,
						"TEXCOORD_0":7,
						"TEXCOORD_1":8
					},
					"indices":9,
					"material":0
				}
			]
		},
		{
			"name":"Cube.003",
			"primitives":[
				{
					"attributes":{
						"POSITION":10,
						"NORMAL":11,
						"TEXCOORD_0":12,
						"TEXCOORD_1":13
					},
					"indices":14,
					"material":0
				}
			]
		},
		{
			"name":"Cube",
			"primitives":[
				{
					"attributes":{
						"POSITION":15,
						"NORMAL":16,
						"TEXCOORD_0":17,
						"TEXCOORD_1":18
					},
					"indices":19,
					"material":1
				}
			]
		},
		{
			"name":"Plane",
			"primitives":[
				{
					"attributes":{
						"POSITION":20,
						"NORMAL":21,
						"TEXCOORD_0":22,
						"TEXCOORD_1":23
					},
					"indices":24,
					"material":2
				}
			]
		}
	],
	"textures":[
		{
			"sampler":0,
			"source":0
		},
		{
			"sampler":0,
			"source":1
		},
		{
			"sampler":0,
			"source":2
		},
		{
			"sampler":0,
			"source":0
		},
		{
			"sampler":0,
			"source":3
		},
		{
			"sampler":0,
			"source":2
		},
		{
			"sampler":0,
			"source":4
		},
		{
			"sampler":0,
			"source":5
		},
		{
			"sampler":0,
			"source":6
		}
	],
	"images":[
		{
			"mimeType":"image/jpeg",
			"name":"Wood066_1K-JPG_NormalGL",
			"uri":"Wood066_1K-JPG_NormalGL.jpg"
		},
		{
			"mimeType":"image/jpeg",
			"name":"Concrete034_1K-JPG_Color",
			"uri":"Concrete034_1K-JPG_Color.jpg"
		},
		{
			"mimeType":"image/png",
			"name":"Wood066_1K-JPG_Roughness",
			"uri":"Wood066_1K-JPG_Roughness.png"
		},
		{
			"mimeType":"image/jpeg",
			"name":"Wood066_1K-JPG_Color",
			"uri":"Wood066_1K-JPG_Color.jpg"
		},
		{
			"mimeType":"image/png",
			"name":"gravel_floor_02_nor_gl_1k",
			"uri":"gravel_floor_02_nor_gl_1k.png"
		},
		{
			"mimeType":"image/jpeg",
			"name":"gravel_floor_02_diff_1k",
			"uri":"gravel_floor_02_diff_1k.jpg"
		},
		{
			"mimeType":"image/png",
			"name":"gravel_floor_02_rough_1k",
			"uri":"gravel_floor_02_rough_1k.png"
		}
	],
	"accessors":[
		{
			"bufferView":0,
			"componentType":5126,
			"count":600,
			"max":[
				1,
				2,
				1
			],
			"min":[
				-1,
				0,
				-1
			],
			"type":"VEC3"
		},
		{
			"bufferView":1,
			"componentType":5126,
			"count":600,
			"type":"VEC3"
		},
		{
			"bufferView":2,
			"componentType":5126,
			"count":600,
			"type":"VEC2"
		},
		{
			"bufferView":3,
			"componentType":5126,
			"count":600,
			"type":"VEC2"
		},
		{
			"bufferView":4,
			"componentType":5123,
			"count":900,
			"type":"SCALAR"
		},
		{
			"bufferView":5,
			"componentType":5126,
			"count":600,
			"max":[
				0.5,
				1,
				0.5
			],
			"min":[
				-0.5,
				0,
				-0.5
			],
			"type":"VEC3"
		},
		{
			"bufferView":6,
			"componentType":5126,
			"count":600,
			"type":"VEC3"
		},
		{
			"bufferView":7,
			"componentType":5126,
			"count":600,
			"type":"VEC2"
		},
		{
			"bufferView":8,
			"componentType":5126,
			"count":600,
			"type":"VEC2"
		},
		{
			"bufferView":9,
			"componentType":5123,
			"count":900,
			"type":"SCALAR"
		},
		{
			"bufferView":10,
			"componentType":5126,
			"count":600,
			"max":[
				0.5,
				1,
				0.5
			],
			"min":[
				-0.5,
				0,
				-0.5
			],
			"type":"VEC3"
		},
		{
			"bufferView":11,
			"componentType":5126,
			"count":600,
			"type":"VEC3"
		},
		{
			"bufferView":12,
			"componentType":5126,
			"count":600,
			"type":"VEC2"
		},
		{
			"bufferView":13,
			"componentType":5126,
			"count":600,
			"type":"VEC2"
		},
		{
			"bufferView":14,
			"componentType":5123,
			"count":900,
			"type":"SCALAR"
		},
		{
			"bufferView":15,
			"componentType":5126,
			"count":600,
			"max":[
				1,
				2,
				1
			],
			"min":[
				-1,
				0,
				-1
			],
			"type":"VEC3"
		},
		{
			"bufferView":16,
			"componentType":5126,
			"count":600,
			"type":"VEC3"
		},
		{
			"bufferView":17,
			"componentType":5126,
			"count":600,
			"type":"VEC2"
		},
		{
			"bufferView":18,
			"componentType":5126,
			"count":600,
			"type":"VEC2"
		},
		{
			"bufferView":19,
			"componentType":5123,
			"count":900,
			"type":"SCALAR"
		},
		{
			"bufferView":20,
			"componentType":5126,
			"count":4,
			"max":[
				1,
				0,
				1
			],
			"min":[
				-1,
				0,
				-1
			],
			"type":"VEC3"
		},
		{
			"bufferView":21,
			"componentType":5126,
			"count":4,
			"type":"VEC3"
		},
		{
			"bufferView":22,
			"componentType":5126,
			"count":4,
			"type":"VEC2"
		},
		{
			"bufferView":23,
			"componentType":5126,
			"count":4,
			"type":"VEC2"
		},
		{
			"bufferView":24,
			"componentType":5123,
			"count":6,
			"type":"SCALAR"
		}
	],
	"bufferViews":[
		{
			"buffer":0,
			"byteLength":7200,
			"byteOffset":0,
			"target":34962
		},
		{
			"buffer":0,
			"byteLength":7200,
			"byteOffset":7200,
			"target":34962
		},
		{
			"buffer":0,
			"byteLength":4800,
			"byteOffset":14400,
			"target":34962
		},
		{
			"buffer":0,
			"byteLength":4800,
			"byteOffset":19200,
			"target":34962
		},
		{
			"buffer":0,
			"byteLength":1800,
			"byteOffset":24000,
			"target":34963
		},
		{
			"buffer":0,
			"byteLength":7200,
			"byteOffset":25800,
			"target":34962
		},
		{
			"buffer":0,
			"byteLength":7200,
			"byteOffset":33000,
			"target":34962
		},
		{
			"buffer":0,
			"byteLength":4800,
			"byteOffset":40200,
			"target":34962
		},
		{
			"buffer":0,
			"byteLength":4800,
			"byteOffset":45000,
			"target":34962
		},
		{
			"buffer":0,
			"byteLength":1800,
			"byteOffset":49800,
			"target":34963
		},
		{
			"buffer":0,
			"byteLength":7200,
			"byteOffset":51600,
			"target":34962
		},
		{
			"buffer":0,
			"byteLength":7200,
			"byteOffset":58800,
			"target":34962
		},
		{
			"buffer":0,
			"byteLength":4800,
			"byteOffset":66000,
			"target":34962
		},
		{
			"buffer":0,
			"byteLength":4800,
			"byteOffset":70800,
			"target":34962
		},
		{
			"buffer":0,
			"byteLength":1800,
			"byteOffset":75600,
			"target":34963
		},
		{
			"buffer":0,
			"byteLength":7200,
			"byteOffset":77400,
			"target":34962
		},
		{
			"buffer":0,
			"byteLength":7200,
			"byteOffset":84600,
			"target":34962
		},
		{
			"buffer":0,
			"byteLength":4800,
			"byteOffset":91800,
			"target":34962
		},
		{
			"buffer":0,
			"byteLength":4800,
			"byteOffset":96600,
			"target":34962
		},
		{
			"buffer":0,
			"byteLength":1800,
			"byteOffset":101400,
			"target":34963
		},
		{
			"buffer":0,
			"byteLength":48,
			"byteOffset":103200,
			"target":34962
		},
		{
			"buffer":0,
			"byteLength":48,
			"byteOffset":103248,
			"target":34962
		},
		{
			"buffer":0,
			"byteLength":32,
			"byteOffset":103296,
			"target":34962
		},
		{
			"buffer":0,
			"byteLength":32,
			"byteOffset":103328,
			"target":34962
		},
		{
			"buffer":0,
			"byteLength":12,
			"byteOffset":103360,
			"target":34963
		}
	],
	"samplers":[
		{
			"magFilter":9729,
			"minFilter":9987
		}
	],
	"buffers":[
		{
			"byteLength":103372,
			"uri":"Learning-Lightmap.bin"
		}
	]
}
